<svg width="32" height="23" viewBox="0 0 32 23" fill="none" xmlns="http://www.w3.org/2000/svg">
<path d="M14.1546 2.23176C14.9175 1.53822 16.0825 1.53822 16.8454 2.23176L20.8723 5.89274C21.7451 6.68625 21.7451 8.05891 20.8723 8.85243L16.8454 12.5134C16.0825 13.2069 14.9175 13.2069 14.1546 12.5134L10.1277 8.85243C9.25492 8.05891 9.25492 6.68625 10.1277 5.89274L14.1546 2.23176Z" fill="#D9D9D9"/>
<path d="M23.6546 10.35918C24.4175 9.66564 25.5825 9.66564 26.3454 10.35918L30.3723 14.0202C31.2451 14.8137 31.2451 16.1863 30.3723 16.9798L26.3454 20.6408C25.5825 21.3344 24.4175 21.3344 23.6546 20.6408L19.6277 16.9798C18.7549 16.1863 18.7549 14.8137 19.6277 14.0202L23.6546 10.35918Z" fill="#D9D9D9"/>
<path d="M4.65461 10.35918C5.41747 9.66564 6.58253 9.66564 7.34538 10.35918L11.3723 14.0202C12.2451 14.8137 12.2451 16.1863 11.3723 16.9798L7.34538 20.6408C6.58253 21.3344 5.41747 21.3344 4.65461 20.6408L0.62774 16.9798C-0.245077 16.1863 -0.245075 14.8137 0.627753 14.0202L4.65461 10.35918Z" fill="#D9D9D9"/>
</svg>
